<svg xmlns="http://www.w3.org/2000/svg" viewBox="0 0 503 120" width="503" height="120" role="img" aria-label="v2e.sh">
<g transform="translate(-13.56 -20.22) scale(2.2222)"><path d="M58 36 L47 17 L25 17 L14 36 L25 55 L47 55 Z" fill="none" stroke="#DBD7CF" stroke-width="5" stroke-linejoin="round"/><circle cx="36" cy="36" r="6" fill="#9184B0"/></g><path fill="#DBD7CF" d="M136.89 41.21H151.65L166.38 90.92H167.90L182.64 41.21H196.47L178.21 102.18H155.15Z"/><path fill="#DBD7CF" d="M207.24 80.81 236.18 61.72Q241.13 58.36 243.48 54.63Q245.82 50.90 245.82 46.36Q245.82 40.63 242.60 37.41Q239.39 34.19 233.58 34.19Q227.99 34.19 224.41 37.60Q220.83 41.00 219.47 47.55H205.20Q205.67 38.96 209.33 32.88Q213.00 26.79 219.22 23.59Q225.45 20.38 233.54 20.38Q241.93 20.38 248.04 23.57Q254.16 26.75 257.48 32.57Q260.81 38.40 260.81 46.36Q260.81 54.58 256.53 61.16Q252.25 67.74 243.32 73.21L222.61 86.49V87.98H259.09V102.18H207.24Z"/><path fill="#DBD7CF" d="M282.87 65.36H317.66L312.93 71.08Q312.93 61.63 309.61 56.80Q306.29 51.97 299.75 51.97Q292.91 51.97 289.26 57.04Q285.60 62.11 285.60 71.29Q285.60 81.15 289.22 86.28Q292.85 91.41 300.15 91.41Q304.50 91.41 307.82 89.34Q311.13 87.27 313.47 83.29H327.22Q325.41 89.82 321.56 94.45Q317.70 99.09 312.20 101.53Q306.70 103.97 299.89 103.97Q291.07 103.97 284.75 100.10Q278.43 96.23 275.06 88.92Q271.69 81.62 271.69 71.29Q271.69 61.48 275.16 54.35Q278.63 47.22 284.94 43.32Q291.25 39.41 299.75 39.41Q307.93 39.41 313.76 43.13Q319.58 46.85 322.68 53.91Q325.78 60.97 325.78 71.01Q325.78 72.47 325.69 73.79Q325.60 75.11 325.45 76.33H282.87Z"/><rect x="336.68" y="82.18" width="20.00" height="20.00" rx="5.00" fill="#9184B0"/><path fill="#918981" d="M386.88 83.29Q388.28 87.17 391.50 89.24Q394.71 91.31 399.69 91.31Q404.99 91.31 407.79 89.60Q410.58 87.90 410.58 84.74Q410.58 82.28 408.49 80.83Q406.40 79.38 402.11 78.82L393.73 77.81Q383.54 76.52 378.60 71.98Q373.65 67.45 373.65 59.29Q373.65 50.03 380.43 44.72Q387.20 39.41 399.15 39.41Q411.70 39.41 418.65 45.04Q425.60 50.68 426.10 61.29H412.80Q411.56 56.79 408.14 54.43Q404.73 52.08 399.08 52.08Q393.49 52.08 390.53 53.81Q387.56 55.53 387.56 58.77Q387.56 61.13 389.66 62.59Q391.76 64.05 396.05 64.62L404.44 65.64Q414.69 66.91 419.59 71.43Q424.49 75.95 424.49 84.09Q424.49 90.31 421.52 94.75Q418.55 99.20 413.00 101.58Q407.45 103.97 399.62 103.97Q387.63 103.97 380.88 98.63Q374.14 93.29 373.41 83.29Z"/><path fill="#918981" d="M439.39 102.18V17.38H453.79V46.45H457.28Q459.33 43.10 462.95 41.25Q466.57 39.41 471.13 39.41Q477.31 39.41 481.73 42.27Q486.14 45.13 488.54 50.45Q490.94 55.78 490.94 63.21V102.18H476.54V66.83Q476.54 59.94 473.66 56.43Q470.79 52.92 465.18 52.92Q459.54 52.92 456.67 56.43Q453.79 59.94 453.79 66.83V102.18Z"/>
</svg>
